<?xml version="1.0" encoding="UTF-8" standalone="no"?>
<!-- Created with Inkscape (http://www.inkscape.org/) -->

<svg
   width="72"
   height="72"
   viewBox="0 0 72 72"
   version="1.1"
   id="svg1"
   xmlns="http://www.w3.org/2000/svg"
   xmlns:svg="http://www.w3.org/2000/svg"
   fill="context-fill" fill-opacity="context-fill-opacity">
  <defs
     id="defs1" />
  <g
     id="layer1-0"
     transform="matrix(0.13552184,0,0,0.13552184,0.79137989,0.29280403)">
    <path
       id="path1"
       style="baseline-shift:baseline;display:inline;overflow:visible;vector-effect:none;stroke-width:54.4479;enable-background:accumulate;stop-color:#000000"
       d="m 229.48331,93.812222 c -33.34266,1.76363 -64.85973,12.444828 -91.86328,31.017578 0.29376,6.08673 0.94169,12.24135 1.93164,18.43555 5.26531,-4.06629 10.82356,-7.84675 16.66992,-11.33399 3.1005,-1.87598 14.90305,-8.0039 15.32812,-8.0039 0.10001,0 1.02563,0.47511 2.05079,1.02539 7.90127,4.27723 13.20201,9.70473 15.27734,15.63281 1.22519,3.55184 1.57511,8.55556 0.875,12.88281 -2.10295,13.01959 -12.02325,29.96952 -29.88281,51.09766 16.71566,33.34248 42.19284,65.34319 74.45508,91.8457 19.58991,16.09263 40.79195,29.42577 62.58203,39.64453 0.0724,-0.75168 0.16743,-1.42909 0.28711,-1.99414 1.2502,-5.90307 3.82557,-11.45764 7.57617,-16.28515 1.60025,-2.07608 1.72592,-2.19949 5.72656,-5.45118 15.15243,-12.3064 33.85479,-20.1365 52.75781,-22.0625 3.25052,-0.32517 14.45339,-0.10024 17.75391,0.375 5.0008,0.67536 9.0254,1.57659 13.82617,3.02735 l 2.10156,0.625 -0.17578,1.05078 c -3.67698,22.84421 -11.82994,44.13374 -24.12304,63.04297 5.30557,0.63477 10.57731,1.06138 15.79882,1.27344 15.96465,-27.14124 24.49395,-58.03426 24.49414,-89.57813 -2e-4,-33.57598 -9.56125,-66.45678 -27.5664,-94.79687 l -10.19336,-16.04297 c -0.003,-0.004 -0.005,-0.008 -0.008,-0.0117 -15.87541,-19.60798 -35.74593,-35.59338 -58.31446,-46.88281 -0.0114,-0.006 -0.0237,-0.01 -0.0351,-0.0156 L 305.913,107.64816 c -9.51851,-4.08801 -19.35389,-7.32013 -29.38868,-9.673829 -7.68322,-1.721673 -15.52159,-2.928854 -23.91211,-3.6875 -4.15066,-0.375195 -19.07825,-0.674713 -23.1289,-0.474609 z m 13.39062,15.906248 c 0.46414,-0.0152 1.0487,0.0324 1.86133,0.0762 1.50024,0.10006 4.72657,0.32528 7.12695,0.52539 23.80381,2.00104 47.45799,9.65486 68.36133,22.11133 1.80029,1.07556 3.54956,2.15064 3.84961,2.42578 l 0.60156,0.45118 -1.85156,1.17578 c -1.00016,0.65033 -4.30068,2.87547 -7.32617,4.97656 -29.75476,20.56069 -50.28328,37.14464 -71.76172,57.98047 l -5.25,5.10351 -0.92578,-1.97656 c -2.85046,-6.02813 -5.70012,-14.05785 -7.40039,-20.73633 -6.67606,-26.23863 -3.60006,-49.4503 9.00195,-68.41015 2.02533,-3.03909 2.32048,-3.6574 3.71289,-3.70313 z m 98.79688,86.11133 c 3.71231,-0.0422 7.63174,0.1412 11.85742,0.53516 9.12646,0.82543 18.97909,3.00152 27.60547,6.07812 2.4504,0.87545 2.95075,1.15126 3.17578,1.72656 0.15003,0.3752 1.04985,2.52656 2,4.80274 6.60106,15.65814 10.87638,33.79156 11.97656,50.77539 l 0.15039,2.65234 -2.95117,0.92383 c -15.70251,4.85252 -34.45463,6.37849 -51.85742,4.15234 -7.42618,-0.9505 -13.90267,-2.451 -21.62891,-5.02734 -4.30068,-1.42574 -4.57662,-1.50045 -6.62695,-1.40039 -2.97547,0.10005 -4.47455,0.87627 -7.25,3.67773 -2.5504,2.55132 -4.15129,4.8776 -8.25195,11.90625 -7.47619,12.85669 -11.45177,17.35733 -17.55274,19.8086 -3.65059,1.47577 -6.75019,1.57638 -12.82617,0.42578 -20.12822,-3.852 -38.3819,-13.30728 -46.5332,-24.08789 -1.97532,-2.62636 -4.17685,-6.95289 -4.87696,-9.6543 -0.6501,-2.42626 -0.77508,-7.65463 -0.25,-10.00586 1.05017,-4.70244 4.40258,-7.75388 10.22852,-9.30468 2.20035,-0.60031 2.87506,-0.65078 7.42578,-0.67579 6.55105,-0.025 12.32573,0.82583 20.00195,3.00196 1.80029,0.50026 3.47692,0.95035 3.75196,1.02539 0.42507,0.10005 1.00045,-0.52515 3.05078,-3.22656 13.67719,-18.05938 32.18014,-33.69255 48.88281,-41.27149 10.08911,-4.55862 19.36111,-6.71126 30.49805,-6.83789 z M 61.108308,273.30246 c 0.275701,17.69143 3.216584,35.46895 8.949219,52.73047 8.926428,26.86396 23.23001,50.04983 43.158203,69.91015 25.95415,25.91347 59.28483,43.04722 95.51563,49.15039 9.97659,1.67587 18.32716,2.35156 29.2539,2.35156 0.59793,0 1.18391,-5.3e-4 1.75781,-0.004 -14.39332,-8.94575 -28.80549,-18.87878 -43.08789,-29.75195 -3.14177,0.77597 -6.26201,1.87986 -9.17773,3.26757 -3.05048,1.42575 -2.92599,1.42513 -8.87695,-1.07617 -12.32697,-5.22772 -15.9525,-7.05303 -24.75391,-12.50586 -9.35149,-5.80302 -12.45137,-8.10359 -21.05273,-15.48242 l -4.17579,-3.57812 8.05079,-9.20508 c 2.31227,-2.64878 4.44336,-5.0997 6.41601,-7.38477 -10.07345,-9.69346 -19.65472,-19.56799 -28.7207,-29.5625 -0.36701,0.2791 -0.73451,0.55638 -1.09961,0.83008 -3.87562,2.90151 -13.275719,9.30469 -13.675783,9.30469 -0.50008,0 -6.001147,-10.45593 -8.601563,-16.33399 C 85.928488,324.50875 82.217319,312.562 79.901277,300.33751 73.20619,291.34152 66.935895,282.31585 61.108308,273.30236 Z" />
    <path
       id="path8"
       style="baseline-shift:baseline;display:inline;overflow:visible;vector-effect:none;stroke-width:54.4479;stroke-linecap:round;stroke-miterlimit:60;enable-background:accumulate;stop-color:#000000"
       d="M 109.01651,38.605191 C 99.558462,38.865011 90.730429,40.023102 82.635652,42.066128 66.935848,46.028579 54.047939,53.235102 44.155183,63.902066 18.806558,91.23433 17.210263,138.23752 38.137605,193.80832 59.064947,249.37913 102.22906,312.20754 162.538,368.08957 c 60.30894,55.88203 126.2528,94.15194 183.27343,110.80664 57.02065,16.65473 103.79392,11.50805 129.14258,-15.82422 5.29123,-5.70528 9.50957,-12.18333 12.73438,-19.42383 12.79499,-28.72795 10.73704,-71.56877 -6.54883,-119.27344 -12.34265,-34.06262 -32.41645,-70.47535 -59.32227,-105.93554 4.65533,16.73734 7.11317,34.09415 7.11328,51.64062 -2.1e-4,36.06358 -10.11625,71.40484 -29.19921,102.00586 l -2.39454,3.83984 -4.52343,-0.0742 C 335.88092,374.92353 274.90249,350.45152 224.16886,308.77511 161.40489,257.21629 122.16208,185.96184 121.3544,119.39035 l -0.0508,-4.19922 3.42578,-2.42774 C 157.3025,89.692739 196.23758,77.302365 236.15323,77.302456 h 0.002 c 6.72973,1.31e-4 13.43877,0.378787 20.10547,1.078125 C 202.06947,50.65372 149.11121,37.503756 109.01651,38.605191 Z" />
  </g>
</svg>
