<?xml version="1.0" encoding="UTF-8" standalone="no"?>
<!-- Created with Inkscape (http://www.inkscape.org/) -->

<svg
   width="72"
   height="72"
   viewBox="0 0 72 72"
   version="1.1"
   id="svg1"
   xmlns="http://www.w3.org/2000/svg"
   xmlns:svg="http://www.w3.org/2000/svg">
  <defs
     id="defs1" />
  <g
     id="layer3"
     transform="translate(-2088)">
    <path
       style="baseline-shift:baseline;display:inline;overflow:visible;opacity:1;vector-effect:none;stroke-width:1;stroke-linecap:round;stroke-miterlimit:60;enable-background:accumulate;stop-color:#000000;stop-opacity:1"
       d="m 2124,68 c -17.6601,0 -32,-14.3399 -32,-32 0,-17.6601 14.3399,-32 32,-32 17.6601,0 32,14.3399 32,32 0,17.6601 -14.3399,32 -32,32 z m 0,-2.19742 c 16.4725,0 29.8026,-13.33006 29.8026,-29.80258 0,-16.47252 -13.3301,-29.80257 -29.8026,-29.80257 -16.4725,0 -29.8026,13.33005 -29.8026,29.80257 0,16.47252 13.3301,29.80258 29.8026,29.80258 z"
       id="circle65-2" />
    <path
       id="path5"
       style="baseline-shift:baseline;display:inline;overflow:visible;vector-effect:none;stroke-width:0.916608;stroke-linecap:round;stroke-miterlimit:60;enable-background:accumulate;stop-color:#000000"
       d="m 2122.923,7.19113 c -2.3747,-2e-5 -4.7369,0.30745 -7.0381,0.8878 0.8339,3.09392 4.1998,7.39007 7.8939,11.81843 l 0.054,0.0643 0.034,0.0766 c 0.094,0.2111 0.1882,0.42213 0.2823,0.63335 l 0.084,0.18764 -0.048,0.19961 c -2.6516,11.10734 -8.2946,17.24214 -10.2068,22.84815 -0.9561,2.80301 -1.0479,5.43442 0.5251,8.70987 1.1855,2.46888 3.3577,5.29784 6.8705,8.7082 -3.0766,-5.71525 -2.7556,-12.53694 -0.4004,-18.81756 1.1384,-3.0356 2.7477,-5.95686 4.6874,-8.59182 0.3957,-1.65278 0.7456,-3.13074 0.9131,-4.54369 l 0.2728,-2.30233 1.4961,3.61107 c 2.2175,-2.37662 4.7096,-4.38676 7.3318,-5.85437 v -2.8e-4 c 0.6338,-0.36589 1.2017,-0.68031 1.7102,-0.94598 0,-0.14662 0,-0.28512 -0.021,-0.41481 -2.9371,-7.15495 -6.6658,-13.69674 -11.8585,-16.15331 -0.8586,-0.0774 -1.72,-0.12081 -2.5821,-0.12083 v 0 z m -13.5416,3.35132 c -0.3933,0.20937 -0.7789,0.43243 -1.1621,0.65979 1.366,4.21854 4.5332,14.83543 3.9591,22.37377 l -0.029,0.38057 -0.3624,0.11804 c -1.6662,0.54394 -3.2947,1.28985 -4.8377,2.30149 -1.8335,1.2021 -2.6532,2.62427 -2.8394,4.26445 -0.1861,1.64019 0.3055,3.53501 1.2868,5.53255 1.9627,3.99509 5.85,8.34411 9.5417,11.89081 l 0.054,0.0518 0.039,0.064 c 1.5218,2.51094 3.5795,4.77963 6.3268,6.58265 0.5216,0.0283 1.0436,0.0465 1.566,0.0465 0.1419,0 0.2837,-8.3e-4 0.4254,-0.003 -5.2565,-4.65438 -8.3503,-8.36142 -9.9368,-11.66503 -1.6949,-3.52952 -1.6067,-6.61315 -0.5796,-9.6244 2.0417,-5.98564 7.5201,-11.84564 10.1244,-22.54554 -0.054,-0.12164 -0.1084,-0.24329 -0.1626,-0.36469 -2.0778,-2.49092 -4.0967,-4.91876 -5.6299,-7.20932 -2.8755,-1.50532 -5.8072,-2.38309 -7.7831,-2.85438 z m 31.0432,13.35711 c -0.047,0.003 -0.1099,0.0108 -0.1882,0.0262 -0.2349,0.0462 -0.6084,0.15686 -1.1044,0.37389 -0.7173,0.3139 -1.6745,0.8142 -2.8869,1.51419 v 0.002 0.002 c -1.5141,0.84678 -2.991,1.89136 -4.3964,3.0938 -0.7027,0.60118 -1.3874,1.24202 -2.0501,1.91703 v 0 c 0,0.003 -0.01,0.006 -0.01,0.009 -0.065,0.0664 -0.1301,0.13307 -0.1949,0.20016 -0.2569,0.26615 -0.5105,0.53757 -0.7603,0.81375 0.2092,-0.23133 0.4247,-0.45382 0.6389,-0.67817 -0.5463,0.57221 -1.0808,1.1627 -1.5929,1.77867 v 2.7e-4 c -2.457,2.95546 -4.4922,6.38118 -5.8327,9.95568 -0.3351,0.89365 -0.627,1.79534 -0.8722,2.70072 -0.4903,1.81075 -0.793,3.63577 -0.8769,5.43816 -0.2099,4.50597 0.9469,8.8706 3.9546,12.51776 l 0.032,0.0384 0.024,0.0437 c 0.2169,0.38397 0.4376,0.73431 0.6578,1.08017 1.1017,-0.0782 2.1969,-0.22255 3.2823,-0.4265 -0.1597,-2.16625 -0.012,-4.06883 0.3616,-5.75554 0.3741,-1.68678 0.9749,-3.15772 1.7225,-4.46128 0.3737,-0.65176 0.7839,-1.26142 1.221,-1.83545 0.4371,-0.57403 0.9008,-1.11219 1.3811,-1.62054 0.9608,-1.01677 1.988,-1.91422 3.0017,-2.74052 1.2766,-1.04066 2.5064,-1.98385 3.5815,-2.92259 0.2318,-0.20239 0.4771,-0.40519 0.691,-0.60802 0.4019,-0.38118 0.7695,-0.76468 1.0927,-1.15673 0.1617,-0.19609 0.3126,-0.39306 0.4524,-0.59242 0.054,-0.0772 0.098,-0.15695 0.1487,-0.23497 0.3077,-0.47407 0.5503,-0.96507 0.7135,-1.48858 0.018,-0.0571 0.043,-0.1113 0.059,-0.16926 v -2.7e-4 c 0.062,-0.22541 0.1093,-0.45723 0.1412,-0.69683 v -2.7e-4 c 0.032,-0.2397 0.048,-0.48696 0.048,-0.74359 0,-0.51327 -0.066,-1.06323 -0.2068,-1.66063 -0.077,-0.32744 -0.175,-0.67344 -0.2929,-1.02839 -0.2358,-0.70967 -0.5515,-1.45485 -0.9398,-2.15645 -0.1942,-0.35084 -0.4066,-0.69071 -0.6362,-1.01002 -0.2295,-0.3193 -0.4743,-0.61639 -0.7335,-0.88446 -0.1297,-0.13403 -0.2627,-0.26072 -0.3995,-0.37945 -0.2736,-0.2374 -0.5616,-0.4426 -0.8631,-0.60885 -0.3015,-0.16622 -0.6166,-0.29376 -0.9448,-0.37555 -0.1642,-0.0409 -0.3314,-0.0704 -0.502,-0.0877 l -0.9181,-0.0927 0.4938,-0.77951 c 1.3754,-2.17021 2.503,-3.95665 3.0874,-5.14947 0.1357,-0.27696 0.2352,-0.51963 0.3038,-0.71687 0.068,-0.1972 0.106,-0.34888 0.1177,-0.44376 z m 0.5348,1.79899 c -0.5739,1.13903 -1.5306,2.66517 -2.6458,4.42732 1.3977,0.412 2.5336,1.42725 3.3958,2.62665 0.188,0.2615 0.3643,0.53214 0.529,0.80874 0.2842,-0.19432 0.5269,-0.39306 0.7305,-0.59465 0.986,-0.9766 1.1538,-1.96758 0.7695,-3.21379 -0.3735,-1.21083 -1.3686,-2.59933 -2.779,-4.05427 z m -10.6478,30.94249 c -0.7715,2.02184 -1.1612,4.44036 -0.9535,7.43398 1.9718,-0.45465 3.8957,-1.11677 5.7397,-1.97633 -1.5256,-1.62153 -3.2005,-3.45007 -4.7862,-5.45765 z" />
  </g>
</svg>
